<?xml version="1.0" encoding="UTF-8" standalone="no"?>
<svg xmlns="http://www.w3.org/2000/svg" xmlns:xlink="http://www.w3.org/1999/xlink" xmlns:serif="http://www.serif.com/" width="100%" height="100%" viewBox="0 0 610 109" version="1.1" xml:space="preserve" style="fill-rule:evenodd;clip-rule:evenodd;stroke-linejoin:round;stroke-miterlimit:2;">
    <g id="Layer_1" transform="matrix(0.507449,0,0,0.507449,0,-22.683)">
        <g id="Layer_1-2">
            <g id="Layer_1-21" serif:id="Layer_1-2">
                <g id="Layer_1-2-2">
                    <g id="Layer_1-2-21" serif:id="Layer_1-2-2">
                        <g>
                            <g>
                                <path d="M138.4,44.7L0,44.7L0,81.7L69.9,136.2L36.7,136.2L4.7,168L4.7,259.2L41.7,259.2L41.7,169.8L108.1,169.8L121.2,136.3L52.4,82.1L137.8,82.1L137.8,44.8L138.4,44.8L138.4,44.7Z" style="fill-rule:nonzero;"></path>
                                <path d="M298.3,126.1L298.3,82.1L261,44.8L190.8,44.8L153.5,82.1L153.5,221.9L190.8,259.2L261,259.2L298.3,221.9L298.3,176.7L261,176.7L261,221.9L190.8,221.9L190.8,82.1L261,82.1L261,126.1L298.3,126.1Z" style="fill-rule:nonzero;"></path>
                                <path d="M474.9,126.1L474.9,82.1L437.9,45.1L367.7,45.1L330.7,82.4L330.7,222.2L368,259.5L438.2,259.5L475.2,222.2L475.2,177L438.2,177L438.2,222.2L368,222.2L368,82.3L438.2,82.3L438.2,126.3L475.2,126.3L474.9,126L474.9,126.1Z" style="fill-rule:nonzero;"></path>
                                <path d="M543.1,116.7L543.1,258.9L506.4,258.9L506.4,54.4L543.1,44.8L616.8,190.8L616.8,44.8L653.5,44.8L653.5,258.9L615.3,258.9L543,116.7L543.1,116.7Z" style="fill-rule:nonzero;"></path>
                            </g>
                            <g>
                                <path d="M711.2,88.1L715.6,84C718.5,87.2 722.3,89 727.3,89C732.3,89 735.2,87.5 735.2,84C735.2,80.5 732.9,80.2 730,79.9L724.5,79C719.3,78.1 713.1,76.4 713.1,69.4C713.1,62.4 718.9,58.9 727.7,58.9C736.5,58.9 738.5,60.9 741.7,64.1L737.6,68.2C735.9,66.2 732.6,64.1 727.4,64.1C722.2,64.1 720.1,65.6 720.1,68.8C720.1,72 722.4,72.6 725.3,72.9L730.8,73.8C736.3,74.7 742.2,76.4 742.2,83.4C742.2,90.4 736.7,94.5 727.3,94.5C717.9,94.5 714.5,91.9 711.3,88.1L711.2,88.1Z" style="fill-rule:nonzero;"></path>
                                <path d="M750.8,77.1C750.8,66.3 757.2,59.3 766.8,59.3C776.4,59.3 782.2,66 782.2,76.2L782.2,78.8L757.7,78.8L757.7,80C757.7,85.2 761.2,89 767,89C772.8,89 774.6,87 776.3,83.8L780.7,87.9C778.4,92 773.7,94.9 766.7,94.9C756.2,94.9 750.1,87.9 750.1,77.1L750.8,77.1ZM758.1,73.9L758.1,74.5L775,74.5L775,73.9C775,68.7 771.8,65.2 766.8,65.2C761.8,65.2 758.1,69 758.1,74.2L758.1,73.9Z" style="fill-rule:nonzero;"></path>
                                <path d="M791,88.1L800.3,88.1L800.3,65.7L791.3,65.7L791.3,59.9L807.6,59.9L807.6,68.9L807.9,68.9C809.4,64.2 812.3,59.9 819,59.9L823.1,59.9L823.1,66.6L816.4,66.6C810.6,66.6 807.4,70.4 807.4,75.3L807.4,88.1L819.6,88.1L819.6,93.9L791,93.9L791,88.1Z" style="fill-rule:nonzero;"></path>
                                <path d="M841.1,94.1L828.9,60.3L836.5,60.3L841.2,74.6L845.6,88.3L845.9,88.3L850.3,74.6L855,60.3L862.3,60.3L850.1,94.1L841.1,94.1Z" style="fill-rule:nonzero;"></path>
                                <path d="M871.7,88.1L883.4,88.1L883.4,65.7L871.7,65.7L871.7,59.9L890.3,59.9L890.3,88.2L901.1,88.2L901.1,94L871.4,94L871.4,88.2L871.7,88.2L871.7,88.1ZM881.9,50L881.9,48.5C881.9,46.5 883.4,44.7 886.9,44.7C890.4,44.7 891.9,46.4 891.9,48.5L891.9,50C891.9,52 890.4,53.8 886.9,53.8C883.4,53.8 881.9,52.1 881.9,50Z" style="fill-rule:nonzero;"></path>
                                <path d="M938.7,67.2L933.2,70.1C932,66.9 929.4,64.9 925.6,64.9C921.8,64.9 917.2,68.4 917.2,73.9L917.2,79.4C917.2,84.6 920.4,88.4 925.9,88.4C931.4,88.4 932.6,86.4 934.3,82.9L939.5,86.1C937.5,90.8 933.1,94 926.4,94.3L925.8,97.2L928.7,97.2C931.3,97.2 933.4,98.7 933.4,101.6C933.4,104.5 929.6,107.1 925.5,107.1C921.4,107.1 919.4,105.6 918.2,104.5L920.8,101.3C921.7,102.2 922.8,103 924.9,103C927,103 927.8,102.4 927.8,101C927.8,99.6 926.9,99 923.1,98.4L921.4,98.4L922.3,93.7C914.1,92.5 909.2,85.8 909.2,76.2C909.2,66.6 915.3,58.4 925.2,58.4C935.1,58.4 936.3,61.6 938.3,66.6L938.6,67.2L938.7,67.2Z" style="fill-rule:nonzero;"></path>
                                <path d="M947.7,77.1C947.7,66.3 953.8,59.3 963.7,59.3C973.6,59.3 979.7,66.3 979.7,77.1C979.7,87.9 973.6,94.9 963.7,94.9C953.8,94.9 947.7,87.9 947.7,77.1ZM972.5,79.7L972.5,74.5C972.5,68.1 969,64.9 963.8,64.9C958.6,64.9 955.1,68.1 955.1,74.5L955.1,79.7C955.1,86.1 958.6,89.3 963.8,89.3C969,89.3 972.5,86.1 972.5,79.7Z" style="fill-rule:nonzero;"></path>
                                <path d="M987.4,88.1L991.8,84C994.7,87.2 998.5,89 1003.5,89C1008.5,89 1011.4,87.5 1011.4,84C1011.4,80.5 1009.1,80.2 1006.2,79.9L1000.7,79C995.5,78.1 989.3,76.4 989.3,69.4C989.3,62.4 995.1,58.9 1003.9,58.9C1012.7,58.9 1014.7,60.9 1017.9,64.1L1013.8,68.2C1012.1,66.2 1008.8,64.1 1003.6,64.1C998.4,64.1 996.3,65.6 996.3,68.8C996.3,72 998.6,72.6 1001.5,72.9L1007,73.8C1012.5,74.7 1018.4,76.4 1018.4,83.4C1018.4,90.4 1012.9,94.5 1003.5,94.5C994.1,94.5 990.7,91.9 987.5,88.1L987.4,88.1Z" style="fill-rule:nonzero;"></path>
                                <path d="M734.5,167.1L734.2,167.1C732.2,171.2 729,173.8 724,173.8C716.1,173.8 710.9,167.7 710.9,156C710.9,144.3 716.1,138.2 724,138.2C731.9,138.2 732.2,140.8 734.2,144.9L734.5,144.9L734.5,124.5L741.8,124.5L741.8,173.2L734.5,173.2L734.5,167.1ZM734.5,161.6L734.5,150.2C734.5,146.1 731,144.1 726.9,144.1C722.8,144.1 718.5,147.6 718.5,153.1L718.5,158.6C718.5,164.1 721.7,167.6 726.9,167.6C732.1,167.6 734.5,165.6 734.5,161.5L734.5,161.6Z" style="fill-rule:nonzero;"></path>
                                <path d="M753.4,167.1L765.1,167.1L765.1,144.7L753.4,144.7L753.4,138.9L772,138.9L772,167.2L782.8,167.2L782.8,173L753.1,173L753.1,167.2L753.4,167.2L753.4,167.1ZM763.6,129L763.6,127.5C763.6,125.5 765.1,123.7 768.6,123.7C772.1,123.7 773.6,125.4 773.6,127.5L773.6,129C773.6,131 772.1,132.8 768.6,132.8C765.1,132.8 763.6,131.1 763.6,129Z" style="fill-rule:nonzero;"></path>
                                <path d="M805.9,187C794.2,187 790.2,183.8 790.2,178.8C790.2,173.8 792.2,173.3 796,172.1L796,171.5C793.7,170.6 792.2,169.2 792.2,166.5C792.2,163.8 794.8,161.5 798.3,160.7C794.2,158.4 791.9,154.9 791.9,149.9C791.9,142.6 797.4,138 805.6,138C813.8,138 810.3,138.3 812,139.2L812,138C812,135.4 813.5,133.3 816.7,133.3L822.8,133.3L822.8,138.8L814.9,138.8L814.9,140.3C817.8,142.3 819.6,145.5 819.6,149.6C819.6,156.9 814.1,161.5 805.9,161.5C797.7,161.5 803,161.5 801.8,161.2C800.3,161.5 798.3,162.7 798.3,164.4C798.3,166.1 800.6,166.7 803.5,166.7L811.1,166.7C820.1,166.7 823.9,170.5 823.9,176C823.9,181.5 818.1,186.2 806.1,186.2L805.8,186.8L805.8,187L805.9,187ZM810.5,173.3L798.8,173.3C797.1,174.2 796.2,175.3 796.2,177.1C796.2,179.7 798.2,181.8 803.2,181.8L808.4,181.8C813.9,181.8 816.8,180.1 816.8,177.1C816.8,174.1 815.3,173.3 810.4,173.3L810.5,173.3ZM812.6,151.1L812.6,149.4C812.6,145.9 810.6,143.3 805.9,143.3C801.2,143.3 799.2,145.6 799.2,149.4L799.2,151.1C799.2,154.6 801.2,157.2 805.9,157.2C810.6,157.2 812.6,154.9 812.6,151.1Z" style="fill-rule:nonzero;"></path>
                                <path d="M832.4,167.1L844.1,167.1L844.1,144.7L832.4,144.7L832.4,138.9L851,138.9L851,167.2L861.8,167.2L861.8,173L832.1,173L832.1,167.2L832.4,167.2L832.4,167.1ZM842.6,129L842.6,127.5C842.6,125.5 844.1,123.7 847.6,123.7C851.1,123.7 852.6,125.4 852.6,127.5L852.6,129C852.6,131 851.1,132.8 847.6,132.8C844.1,132.8 842.6,131.1 842.6,129Z" style="fill-rule:nonzero;"></path>
                                <path d="M886.9,173C881.1,173 878.2,169.5 878.2,164.3L878.2,144.8L867.7,144.8L867.7,139L875.3,139C877.9,139 878.8,138.1 878.8,135.5L878.8,127.1L885.5,127.1L885.5,139L900.1,139L900.1,144.8L885.5,144.8L885.5,167.2L900.1,167.2L900.1,173L886.9,173Z" style="fill-rule:nonzero;"></path>
                                <path d="M937,173C932.9,173 930.9,170.7 930.6,167.2L930.3,167.2C928.8,171.3 925.3,173.6 920.1,173.6C914.9,173.6 908.7,169.8 908.7,163.4C908.7,157 913.4,153.2 923.6,153.2L930,153.2L930,150.6C930,145.9 927.7,143.6 922.7,143.6C917.7,143.6 915.7,145.3 914,148.3L909.6,144.8C911.6,141 916,138.1 923.3,138.1C930.6,138.1 937,142.5 937,150L937,166.9L941.4,166.9L941.4,172.4L937,172.4L937,173ZM930,162.8L930,157.7L923.6,157.7C918.4,157.7 915.7,159.4 915.7,162.4L915.7,163.9C915.7,166.8 918,168.6 921.8,168.6C925.6,168.6 929.7,166.3 929.7,163.1L930,162.8Z" style="fill-rule:nonzero;"></path>
                                <path d="M950.7,167.1L962.4,167.1L962.4,144.7L950.7,144.7L950.7,138.9L969.3,138.9L969.3,167.2L980.1,167.2L980.1,173L950.4,173L950.4,167.2L950.7,167.2L950.7,167.1ZM960.9,129L960.9,127.5C960.9,125.5 962.4,123.7 965.9,123.7C969.4,123.7 970.9,125.4 970.9,127.5L970.9,129C970.9,131 969.4,132.8 965.9,132.8C962.4,132.8 960.9,131.1 960.9,129Z" style="fill-rule:nonzero;"></path>
                                <path d="M987.4,167.1L991.8,163C994.7,166.2 998.5,168 1003.5,168C1008.5,168 1011.4,166.5 1011.4,163C1011.4,159.5 1009.1,159.2 1006.2,158.9L1000.7,158C995.5,157.1 989.3,155.4 989.3,148.4C989.3,141.4 995.1,137.9 1003.9,137.9C1012.7,137.9 1014.7,139.9 1017.9,143.1L1013.8,147.2C1012.1,145.2 1008.8,143.1 1003.6,143.1C998.4,143.1 996.3,144.6 996.3,147.8C996.3,151 998.6,151.6 1001.5,151.9L1007,152.8C1012.5,153.7 1018.4,155.4 1018.4,162.4C1018.4,169.4 1012.9,173.5 1003.5,173.5C994.1,173.5 990.7,170.9 987.5,167.1L987.4,167.1Z" style="fill-rule:nonzero;"></path>
                                <path d="M712.3,246.1L723.1,246.1L723.1,223.7L711.7,223.7L711.7,217.9L723.1,217.9L723.1,211.8C723.1,206.8 725.7,203.1 731.8,203.1L743.2,203.1L743.2,208.9L730.4,208.9L730.4,217.9L743.2,217.9L743.2,223.7L730.4,223.7L730.4,246.1L741.8,246.1L741.8,251.9L712.4,251.9L712.4,246.1L712.3,246.1Z" style="fill-rule:nonzero;"></path>
                                <path d="M751.7,235C751.7,224.2 757.8,217.2 767.7,217.2C777.6,217.2 778.8,220.4 780.8,225.4L775.3,228.3C774.1,225.1 771.5,223.1 767.7,223.1C763.9,223.1 759.3,226.6 759.3,232.1L759.3,237.6C759.3,242.8 762.5,246.6 768,246.6C773.5,246.6 774.7,244.6 776.4,241.1L781.6,244.3C779.6,249 774.9,252.5 767.9,252.5C757.7,252.5 751.9,245.5 751.9,234.7L751.6,235L751.7,235Z" style="fill-rule:nonzero;"></path>
                                <path d="M807.9,252C802.1,252 799.2,248.5 799.2,243.3L799.2,223.8L788.7,223.8L788.7,218L796.3,218C798.9,218 799.8,217.1 799.8,214.5L799.8,206.1L806.5,206.1L806.5,218L821.1,218L821.1,223.8L806.5,223.8L806.5,246.2L821.1,246.2L821.1,252L807.9,252Z" style="fill-rule:nonzero;"></path>
                            </g>
                        </g>
                    </g>
                </g>
            </g>
        </g>
    </g>
</svg>
